<svg viewBox="0 0 500 650" xmlns="http://www.w3.org/2000/svg">
<rect width="500" height="650" fill="white"/>

<!-- Road -->
<rect x="0" y="545" width="500" height="105" fill="white" stroke="#1a1a1a" stroke-width="2"/>
<!-- Lane dashes -->
<rect x="0" y="592" width="55" height="9" rx="3" fill="white" stroke="#1a1a1a" stroke-width="1.5"/><rect x="88" y="592" width="55" height="9" rx="3" fill="white" stroke="#1a1a1a" stroke-width="1.5"/><rect x="176" y="592" width="55" height="9" rx="3" fill="white" stroke="#1a1a1a" stroke-width="1.5"/><rect x="264" y="592" width="55" height="9" rx="3" fill="white" stroke="#1a1a1a" stroke-width="1.5"/><rect x="352" y="592" width="55" height="9" rx="3" fill="white" stroke="#1a1a1a" stroke-width="1.5"/><rect x="440" y="592" width="55" height="9" rx="3" fill="white" stroke="#1a1a1a" stroke-width="1.5"/>
<!-- Sidewalk -->
<rect x="0" y="530" width="500" height="18" fill="white" stroke="#1a1a1a" stroke-width="1.5"/>
<!-- Sky/Clouds -->
<ellipse cx="40" cy="59" rx="30" ry="22" fill="white" stroke="#1a1a1a" stroke-width="2"/>
<ellipse cx="60" cy="54" rx="34" ry="13" fill="white" stroke="#1a1a1a" stroke-width="2"/><ellipse cx="193.33333333333334" cy="79" rx="44" ry="19" fill="white" stroke="#1a1a1a" stroke-width="2"/>
<ellipse cx="211.33333333333334" cy="67" rx="22" ry="13" fill="white" stroke="#1a1a1a" stroke-width="2"/><ellipse cx="346.6666666666667" cy="76" rx="48" ry="19" fill="white" stroke="#1a1a1a" stroke-width="2"/>
<ellipse cx="364.6666666666667" cy="65" rx="36" ry="18" fill="white" stroke="#1a1a1a" stroke-width="2"/>
<!-- Buildings -->
<rect x="15" y="340" width="65" height="195" fill="white" stroke="#1a1a1a" stroke-width="2"/>
<rect x="22" y="355" width="11" height="14" fill="white" stroke="#1a1a1a" stroke-width="1.5"/><rect x="40" y="355" width="11" height="14" fill="white" stroke="#1a1a1a" stroke-width="1.5"/><rect x="58" y="355" width="11" height="14" fill="white" stroke="#1a1a1a" stroke-width="1.5"/><rect x="22" y="400" width="11" height="14" fill="white" stroke="#1a1a1a" stroke-width="1.5"/><rect x="40" y="400" width="11" height="14" fill="white" stroke="#1a1a1a" stroke-width="1.5"/><rect x="58" y="400" width="11" height="14" fill="white" stroke="#1a1a1a" stroke-width="1.5"/>
<rect x="420" y="310" width="72" height="225" fill="white" stroke="#1a1a1a" stroke-width="2"/>
<rect x="427" y="325" width="11" height="14" fill="white" stroke="#1a1a1a" stroke-width="1.5"/><rect x="446" y="325" width="11" height="14" fill="white" stroke="#1a1a1a" stroke-width="1.5"/><rect x="465" y="325" width="11" height="14" fill="white" stroke="#1a1a1a" stroke-width="1.5"/><rect x="427" y="370" width="11" height="14" fill="white" stroke="#1a1a1a" stroke-width="1.5"/><rect x="446" y="370" width="11" height="14" fill="white" stroke="#1a1a1a" stroke-width="1.5"/><rect x="465" y="370" width="11" height="14" fill="white" stroke="#1a1a1a" stroke-width="1.5"/>
<g transform="translate(65.0,115.0) scale(5.14)">

  <g id="line">
    <g>
      <path d="m31,45c-.5209-.0314-.9686.3653-1,.8862-.0023.0379-.0023.0759,0,.1138,0,5.081-4.119,9.2-9.2,9.2-5.081,0-9.2-4.119-9.2-9.2,0-5.081,4.119-9.2,9.2-9.2h0l.2-2h-.2c-6.1856,0-11.2,5.0144-11.2,11.2s5.0144,11.2,11.2,11.2,11.2-5.0144,11.2-11.2c.0314-.5209-.3653-.9686-.8862-1-.0379-.0023-.0759-.0023-.1138,0Z"/>
      <path d="m52.8,34.8c-1.3293.0205-2.6465.2569-3.9.7l.9,1.8c.9703-.3117,1.981-.4802,3-.5,5.0808-.0477,9.2383,4.0324,9.286,9.1132s-4.0324,9.2383-9.1132,9.286c-4.9198.0462-9.0051-3.7865-9.2728-8.6992l-2-.1c.2461,6.1555,5.4356,10.9461,11.5912,10.7,6.1555-.2461,10.9461-5.4356,10.7-11.5912-.2399-6-5.1865-10.7334-11.1912-10.7088Z"/>
      <path d="m48,38.2l-.9-1.8c-2.8634,1.7037-4.8094,4.6043-5.3,7.9l2,.1c.478-2.5604,1.9995-4.8065,4.2-6.2Z"/>
      <line x1="23" x2="27" y1="22" y2="22" fill="none" stroke="#1a1a1a" stroke-linecap="round" stroke-linejoin="round" stroke-width="0.389"/>
      <line x1="42" x2="48" y1="25.7" y2="25.7" fill="none" stroke="#1a1a1a" stroke-linecap="round" stroke-linejoin="round" stroke-width="0.389"/>
    </g>
    <g>
      <line x1="21.1" x2="22.8" y1="46" y2="24.6" fill="none" stroke="#1a1a1a" stroke-linecap="round" stroke-linejoin="round" stroke-width="0.389"/>
      <line x1="36" x2="23" y1="45" y2="30" fill="none" stroke="#1a1a1a" stroke-linecap="round" stroke-linejoin="round" stroke-width="0.389"/>
      <line x1="45" x2="53" y1="30" y2="46" fill="none" stroke="#1a1a1a" stroke-linecap="round" stroke-linejoin="round" stroke-width="0.389"/>
      <line x1="23" x2="44" y1="30" y2="30" fill="none" stroke="#1a1a1a" stroke-linecap="round" stroke-linejoin="round" stroke-width="0.389"/>
      <line x1="46" x2="36" y1="28.4" y2="45" fill="none" stroke="#1a1a1a" stroke-linecap="round" stroke-linejoin="round" stroke-width="0.389"/>
      <line x1="36" x2="53" y1="45" y2="46" fill="none" stroke="#1a1a1a" stroke-linecap="round" stroke-linejoin="round" stroke-width="0.389"/>
    </g>
  </g>

</g>
</svg>