<svg viewBox="0 0 500 650" xmlns="http://www.w3.org/2000/svg">
<rect width="500" height="650" fill="white"/>

<!-- Table -->
<rect x="25" y="535" width="450" height="22" rx="5" fill="white" stroke="#1a1a1a" stroke-width="2.5"/>
<rect x="55" y="555" width="20" height="75" fill="white" stroke="#1a1a1a" stroke-width="2"/>
<rect x="425" y="555" width="20" height="75" fill="white" stroke="#1a1a1a" stroke-width="2"/>
<!-- Plate ring -->
<ellipse cx="250" cy="538" rx="195" ry="13" fill="white" stroke="#1a1a1a" stroke-width="1.5"/>
<ellipse cx="250" cy="538" rx="175" ry="10" fill="none" stroke="#1a1a1a" stroke-width="1"/>
<!-- Fork -->
<rect x="52" y="440" width="6" height="85" rx="2" fill="white" stroke="#1a1a1a" stroke-width="2"/>
<rect x="47" y="440" width="4" height="28" rx="2" fill="white" stroke="#1a1a1a" stroke-width="1.5"/>
<rect x="56" y="440" width="4" height="28" rx="2" fill="white" stroke="#1a1a1a" stroke-width="1.5"/>
<!-- Knife -->
<rect x="442" y="440" width="6" height="85" rx="2" fill="white" stroke="#1a1a1a" stroke-width="2"/>
<path d="M442,440 Q452,455 442,468" fill="white" stroke="#1a1a1a" stroke-width="1.5"/>
<!-- Decorative stars -->
<circle cx="465" cy="325" r="4" fill="white" stroke="#1a1a1a" stroke-width="1.5"/><line x1="458" y1="325" x2="472" y2="325" stroke="#1a1a1a" stroke-width="1.5"/><line x1="465" y1="318" x2="465" y2="332" stroke="#1a1a1a" stroke-width="1.5"/><circle cx="402" cy="449" r="4" fill="white" stroke="#1a1a1a" stroke-width="1.5"/><line x1="395" y1="449" x2="409" y2="449" stroke="#1a1a1a" stroke-width="1.5"/><line x1="402" y1="442" x2="402" y2="456" stroke="#1a1a1a" stroke-width="1.5"/><circle cx="250" cy="500" r="4" fill="white" stroke="#1a1a1a" stroke-width="1.5"/><line x1="243" y1="500" x2="257" y2="500" stroke="#1a1a1a" stroke-width="1.5"/><line x1="250" y1="493" x2="250" y2="507" stroke="#1a1a1a" stroke-width="1.5"/><circle cx="98" cy="449" r="4" fill="white" stroke="#1a1a1a" stroke-width="1.5"/><line x1="91" y1="449" x2="105" y2="449" stroke="#1a1a1a" stroke-width="1.5"/><line x1="98" y1="442" x2="98" y2="456" stroke="#1a1a1a" stroke-width="1.5"/><circle cx="35" cy="325" r="4" fill="white" stroke="#1a1a1a" stroke-width="1.5"/><line x1="28" y1="325" x2="42" y2="325" stroke="#1a1a1a" stroke-width="1.5"/><line x1="35" y1="318" x2="35" y2="332" stroke="#1a1a1a" stroke-width="1.5"/><circle cx="98" cy="201" r="4" fill="white" stroke="#1a1a1a" stroke-width="1.5"/><line x1="91" y1="201" x2="105" y2="201" stroke="#1a1a1a" stroke-width="1.5"/><line x1="98" y1="194" x2="98" y2="208" stroke="#1a1a1a" stroke-width="1.5"/><circle cx="250" cy="150" r="4" fill="white" stroke="#1a1a1a" stroke-width="1.5"/><line x1="243" y1="150" x2="257" y2="150" stroke="#1a1a1a" stroke-width="1.5"/><line x1="250" y1="143" x2="250" y2="157" stroke="#1a1a1a" stroke-width="1.5"/><circle cx="402" cy="201" r="4" fill="white" stroke="#1a1a1a" stroke-width="1.5"/><line x1="395" y1="201" x2="409" y2="201" stroke="#1a1a1a" stroke-width="1.5"/><line x1="402" y1="194" x2="402" y2="208" stroke="#1a1a1a" stroke-width="1.5"/>
<g transform="translate(65.0,115.0) scale(5.14)">

  <g id="line">
    <path fill="none" stroke="#1a1a1a" stroke-linecap="round" stroke-linejoin="round" stroke-width="0.389" d="m37.01 21.82c-1.343-7.331-6.229-22.43-22.85-7.574"/>
    <path fill="none" stroke="#1a1a1a" stroke-miterlimit="10" d="m54.34 32.9a6.679 6.672 0 1 0-8.112-10.32"/>
    <path fill="none" stroke="#1a1a1a" stroke-miterlimit="10" stroke-width="0.389" d="m30.48 40.42a6.625 6.619 0 0 1-0.949-3.418 6.706 6.699 0 0 1 5.462-6.562"/>
    <ellipse cx="36.57" cy="57.34" rx="6.721" ry="6.715" fill="none" stroke="#1a1a1a" stroke-miterlimit="10" stroke-width="0.389"/>
    <path fill="none" stroke="#1a1a1a" stroke-miterlimit="10" stroke-width="0.389" d="m36.57 50.62a6.721 6.715 0 0 0 0 13.43"/>
    <path fill="none" stroke="#1a1a1a" stroke-miterlimit="10" stroke-width="0.389" d="m42.17 53.98q0.2552 0 0.5059-0.01869"/>
    <path fill="none" stroke="#1a1a1a" stroke-miterlimit="10" stroke-width="0.389" d="m42.67 53.96a6.718 6.711 0 1 0-6.551-3.756"/>
    <path fill="none" stroke="#1a1a1a" stroke-miterlimit="10" stroke-width="0.389" d="m36.37 43.28a6.721 6.715 0 1 0-6.042 10.67"/>
    <path fill="none" stroke="#1a1a1a" stroke-miterlimit="10" stroke-width="0.389" d="m43.13 33.73a6.732 6.725 0 0 0-0.2801 6.416"/>
    <path fill="none" stroke="#1a1a1a" stroke-miterlimit="10" stroke-width="0.389" d="m47.91 43.84a6.721 6.715 0 1 0-4.783-10.11"/>
    <path fill="none" stroke="#1a1a1a" stroke-miterlimit="10" stroke-width="0.389" d="m30.41 32.75a6.721 6.715 0 1 0-6.157 11.06"/>
    <path fill="none" stroke="#1a1a1a" stroke-miterlimit="10" stroke-width="0.389" d="m24.25 43.81a6.775 6.768 0 0 0 1.112 0.09143"/>
    <path fill="none" stroke="#1a1a1a" stroke-miterlimit="10" stroke-width="0.389" d="m54.5 32.93a6.721 6.715 0 1 0-8.322-10.35"/>
    <path fill="none" stroke="#1a1a1a" stroke-miterlimit="10" stroke-width="0.389" d="m46.68 30.78a6.708 6.701 0 1 0-3.669 2.765"/>
    <path fill="none" stroke="#1a1a1a" stroke-miterlimit="10" stroke-width="0.389" d="m35.83 22.48a6.723 6.716 0 0 0-10.9 7.582"/>
    <path fill="none" stroke="#1a1a1a" stroke-miterlimit="10" stroke-width="0.389" d="m25.64 22.37a6.721 6.715 0 1 0-6.216 11.3"/>
    <path fill="none" stroke="#1a1a1a" stroke-linecap="round" stroke-linejoin="round" stroke-width="0.389" d="m50.57 9.212s-3.357 7.635-15.68 5.496"/>
  </g>

</g>
</svg>