<svg viewBox="0 0 500 650" xmlns="http://www.w3.org/2000/svg">
<rect width="500" height="650" fill="white"/>

<!-- City skyline -->
<rect x="0" y="445" width="75" height="210" fill="white" stroke="#1a1a1a" stroke-width="2"/>
<rect x="85" y="470" width="58" height="185" fill="white" stroke="#1a1a1a" stroke-width="2"/>
<rect x="155" y="410" width="68" height="245" fill="white" stroke="#1a1a1a" stroke-width="2"/>
<rect x="340" y="430" width="70" height="225" fill="white" stroke="#1a1a1a" stroke-width="2"/>
<rect x="420" y="455" width="80" height="200" fill="white" stroke="#1a1a1a" stroke-width="2"/>
<rect x="8" y="460" width="10" height="13" fill="white" stroke="#1a1a1a" stroke-width="1.5"/><rect x="23" y="460" width="10" height="13" fill="white" stroke="#1a1a1a" stroke-width="1.5"/><rect x="38" y="460" width="10" height="13" fill="white" stroke="#1a1a1a" stroke-width="1.5"/><rect x="53" y="460" width="10" height="13" fill="white" stroke="#1a1a1a" stroke-width="1.5"/><rect x="8" y="495" width="10" height="13" fill="white" stroke="#1a1a1a" stroke-width="1.5"/><rect x="23" y="495" width="10" height="13" fill="white" stroke="#1a1a1a" stroke-width="1.5"/><rect x="38" y="495" width="10" height="13" fill="white" stroke="#1a1a1a" stroke-width="1.5"/><rect x="53" y="495" width="10" height="13" fill="white" stroke="#1a1a1a" stroke-width="1.5"/><rect x="8" y="530" width="10" height="13" fill="white" stroke="#1a1a1a" stroke-width="1.5"/><rect x="23" y="530" width="10" height="13" fill="white" stroke="#1a1a1a" stroke-width="1.5"/><rect x="38" y="530" width="10" height="13" fill="white" stroke="#1a1a1a" stroke-width="1.5"/><rect x="53" y="530" width="10" height="13" fill="white" stroke="#1a1a1a" stroke-width="1.5"/>
<!-- Clouds -->
<ellipse cx="40" cy="62" rx="30" ry="22" fill="white" stroke="#1a1a1a" stroke-width="2"/>
<ellipse cx="60" cy="57" rx="34" ry="13" fill="white" stroke="#1a1a1a" stroke-width="2"/><ellipse cx="270" cy="82" rx="44" ry="19" fill="white" stroke="#1a1a1a" stroke-width="2"/>
<ellipse cx="288" cy="70" rx="22" ry="13" fill="white" stroke="#1a1a1a" stroke-width="2"/>
<!-- Speed lines -->
<line x1="50" y1="200" x2="185" y2="240" stroke="#1a1a1a" stroke-width="1.5" stroke-dasharray="10,5"/>
<line x1="30" y1="240" x2="180" y2="265" stroke="#1a1a1a" stroke-width="1.5" stroke-dasharray="10,5"/>
<line x1="60" y1="280" x2="182" y2="290" stroke="#1a1a1a" stroke-width="1.5" stroke-dasharray="10,5"/>
<g transform="translate(65.0,115.0) scale(5.14)">

  <g id="line">
    <path fill="none" stroke="#1a1a1a" stroke-linecap="round" stroke-linejoin="round" stroke-miterlimit="2" stroke-width="0.389" d="M34,16.0109V13.5c0-1.3807,1.1193-2.5,2.5-2.5l0,0c1.3807,0,2.5,1.1193,2.5,2.5V16"/>
    <path fill="none" stroke="#1a1a1a" stroke-linecap="round" stroke-linejoin="round" stroke-miterlimit="2" stroke-width="0.389" d="M47.4505,56h-22.901C19.8473,56,16,52.1527,16,47.4505v-22.901C16,19.8473,19.8473,16,24.5495,16h22.901 C52.1527,16,56,19.8473,56,24.5495v22.901C56,52.1527,52.1527,56,47.4505,56z"/>
    <ellipse cx="44.8346" cy="29.0022" rx="2.8338" ry="2.8338" fill="none" stroke="#1a1a1a" stroke-linecap="round" stroke-linejoin="round" stroke-miterlimit="2" stroke-width="0.389"/>
    <ellipse cx="27.3342" cy="29.0017" rx="2.8338" ry="2.8338" fill="none" stroke="#1a1a1a" stroke-linecap="round" stroke-linejoin="round" stroke-miterlimit="2" stroke-width="0.389"/>
    <path fill="none" stroke="#1a1a1a" stroke-miterlimit="2" stroke-width="0.389" d="M44.5,47.5h-17c-2.2,0-4-1.8-4-4l0,0 c0-2.2,1.8-4,4-4h17c2.2,0,4,1.8,4,4l0,0C48.5,45.7,46.7,47.5,44.5,47.5z"/>
    <path fill="none" stroke="#1a1a1a" stroke-linecap="round" stroke-linejoin="round" stroke-miterlimit="2" stroke-width="0.389" d="M13.5,41L13.5,41c-1.3807,0-2.5-1.1193-2.5-2.5v-8c0-1.3807,1.1193-2.5,2.5-2.5l0,0c1.3807,0,2.5,1.1193,2.5,2.5v8 C16,39.8807,14.8807,41,13.5,41z"/>
    <path fill="none" stroke="#1a1a1a" stroke-linecap="round" stroke-linejoin="round" stroke-miterlimit="2" stroke-width="0.389" d="M58.5,41L58.5,41c1.3807,0,2.5-1.1193,2.5-2.5v-8c0-1.3807-1.1193-2.5-2.5-2.5l0,0c-1.3807,0-2.5,1.1193-2.5,2.5v8 C56,39.8807,57.1193,41,58.5,41z"/>
    <line x1="28" x2="28" y1="40" y2="47" fill="none" stroke="#1a1a1a" stroke-linecap="round" stroke-linejoin="round" stroke-miterlimit="2" stroke-width="0.389"/>
    <line x1="33" x2="33" y1="40" y2="47" fill="none" stroke="#1a1a1a" stroke-linecap="round" stroke-linejoin="round" stroke-miterlimit="2" stroke-width="0.389"/>
    <line x1="38" x2="38" y1="40" y2="47" fill="none" stroke="#1a1a1a" stroke-linecap="round" stroke-linejoin="round" stroke-miterlimit="2" stroke-width="0.389"/>
    <line x1="43" x2="43" y1="40" y2="47" fill="none" stroke="#1a1a1a" stroke-linecap="round" stroke-linejoin="round" stroke-miterlimit="2" stroke-width="0.389"/>
  </g>

</g>
</svg>