<svg viewBox="0 0 500 650" xmlns="http://www.w3.org/2000/svg">
<rect width="500" height="650" fill="white"/>

<!-- Ground -->
<path d="M0,520 Q125,500 250,518 Q375,535 500,518 L500,650 L0,650 Z" fill="white" stroke="#1a1a1a" stroke-width="2"/>
<path d="M15,521 C11,503 19,499 23,515" fill="white" stroke="#1a1a1a" stroke-width="2"/>
<path d="M21,521 C17,507 27,503 28,517" fill="white" stroke="#1a1a1a" stroke-width="2"/><path d="M48.57142857142857,512 C44.57142857142857,494 52.57142857142857,490 56.57142857142857,506" fill="white" stroke="#1a1a1a" stroke-width="2"/>
<path d="M54.57142857142857,512 C50.57142857142857,498 60.57142857142857,494 61.57142857142857,508" fill="white" stroke="#1a1a1a" stroke-width="2"/><path d="M82.14285714285714,519 C78.14285714285714,501 86.14285714285714,497 90.14285714285714,513" fill="white" stroke="#1a1a1a" stroke-width="2"/>
<path d="M88.14285714285714,519 C84.14285714285714,505 94.14285714285714,501 95.14285714285714,515" fill="white" stroke="#1a1a1a" stroke-width="2"/><path d="M115.71428571428571,529 C111.71428571428571,511 119.71428571428571,507 123.71428571428571,523" fill="white" stroke="#1a1a1a" stroke-width="2"/>
<path d="M121.71428571428571,529 C117.71428571428571,515 127.71428571428571,511 128.71428571428572,525" fill="white" stroke="#1a1a1a" stroke-width="2"/><path d="M149.28571428571428,521 C145.28571428571428,503 153.28571428571428,499 157.28571428571428,515" fill="white" stroke="#1a1a1a" stroke-width="2"/>
<path d="M155.28571428571428,521 C151.28571428571428,507 161.28571428571428,503 162.28571428571428,517" fill="white" stroke="#1a1a1a" stroke-width="2"/><path d="M182.85714285714283,527 C178.85714285714283,509 186.85714285714283,505 190.85714285714283,521" fill="white" stroke="#1a1a1a" stroke-width="2"/>
<path d="M188.85714285714283,527 C184.85714285714283,513 194.85714285714283,509 195.85714285714283,523" fill="white" stroke="#1a1a1a" stroke-width="2"/><path d="M216.42857142857142,517 C212.42857142857142,499 220.42857142857142,495 224.42857142857142,511" fill="white" stroke="#1a1a1a" stroke-width="2"/>
<path d="M222.42857142857142,517 C218.42857142857142,503 228.42857142857142,499 229.42857142857142,513" fill="white" stroke="#1a1a1a" stroke-width="2"/><path d="M250,524 C246,506 254,502 258,518" fill="white" stroke="#1a1a1a" stroke-width="2"/>
<path d="M256,524 C252,510 262,506 263,520" fill="white" stroke="#1a1a1a" stroke-width="2"/><path d="M283.57142857142856,521 C279.57142857142856,503 287.57142857142856,499 291.57142857142856,515" fill="white" stroke="#1a1a1a" stroke-width="2"/>
<path d="M289.57142857142856,521 C285.57142857142856,507 295.57142857142856,503 296.57142857142856,517" fill="white" stroke="#1a1a1a" stroke-width="2"/><path d="M317.1428571428571,513 C313.1428571428571,495 321.1428571428571,491 325.1428571428571,507" fill="white" stroke="#1a1a1a" stroke-width="2"/>
<path d="M323.1428571428571,513 C319.1428571428571,499 329.1428571428571,495 330.1428571428571,509" fill="white" stroke="#1a1a1a" stroke-width="2"/><path d="M350.71428571428567,510 C346.71428571428567,492 354.71428571428567,488 358.71428571428567,504" fill="white" stroke="#1a1a1a" stroke-width="2"/>
<path d="M356.71428571428567,510 C352.71428571428567,496 362.71428571428567,492 363.71428571428567,506" fill="white" stroke="#1a1a1a" stroke-width="2"/><path d="M384.2857142857143,519 C380.2857142857143,501 388.2857142857143,497 392.2857142857143,513" fill="white" stroke="#1a1a1a" stroke-width="2"/>
<path d="M390.2857142857143,519 C386.2857142857143,505 396.2857142857143,501 397.2857142857143,515" fill="white" stroke="#1a1a1a" stroke-width="2"/><path d="M417.85714285714283,528 C413.85714285714283,510 421.85714285714283,506 425.85714285714283,522" fill="white" stroke="#1a1a1a" stroke-width="2"/>
<path d="M423.85714285714283,528 C419.85714285714283,514 429.85714285714283,510 430.85714285714283,524" fill="white" stroke="#1a1a1a" stroke-width="2"/><path d="M451.4285714285714,528 C447.4285714285714,510 455.4285714285714,506 459.4285714285714,522" fill="white" stroke="#1a1a1a" stroke-width="2"/>
<path d="M457.4285714285714,528 C453.4285714285714,514 463.4285714285714,510 464.4285714285714,524" fill="white" stroke="#1a1a1a" stroke-width="2"/>
<!-- Clouds -->
<ellipse cx="40" cy="52" rx="30" ry="22" fill="white" stroke="#1a1a1a" stroke-width="2"/>
<ellipse cx="60" cy="47" rx="34" ry="13" fill="white" stroke="#1a1a1a" stroke-width="2"/><ellipse cx="193.33333333333334" cy="72" rx="44" ry="19" fill="white" stroke="#1a1a1a" stroke-width="2"/>
<ellipse cx="211.33333333333334" cy="60" rx="22" ry="13" fill="white" stroke="#1a1a1a" stroke-width="2"/><ellipse cx="346.6666666666667" cy="69" rx="48" ry="19" fill="white" stroke="#1a1a1a" stroke-width="2"/>
<ellipse cx="364.6666666666667" cy="58" rx="36" ry="18" fill="white" stroke="#1a1a1a" stroke-width="2"/>
<!-- Sun -->
<circle cx="440" cy="50" r="30" fill="white" stroke="#1a1a1a" stroke-width="2.5"/><line x1="476.0" y1="50.0" x2="488.0" y2="50.0" stroke="#1a1a1a" stroke-width="2.5"/><line x1="465.5" y1="75.5" x2="473.9" y2="83.9" stroke="#1a1a1a" stroke-width="2.5"/><line x1="440.0" y1="86.0" x2="440.0" y2="98.0" stroke="#1a1a1a" stroke-width="2.5"/><line x1="414.5" y1="75.5" x2="406.1" y2="83.9" stroke="#1a1a1a" stroke-width="2.5"/><line x1="404.0" y1="50.0" x2="392.0" y2="50.0" stroke="#1a1a1a" stroke-width="2.5"/><line x1="414.5" y1="24.5" x2="406.1" y2="16.1" stroke="#1a1a1a" stroke-width="2.5"/><line x1="440.0" y1="14.0" x2="440.0" y2="2.0" stroke="#1a1a1a" stroke-width="2.5"/><line x1="465.5" y1="24.5" x2="473.9" y2="16.1" stroke="#1a1a1a" stroke-width="2.5"/>
<!-- Tree right -->
<rect x="430" y="390" width="14" height="130" fill="white" stroke="#1a1a1a" stroke-width="2"/>
<ellipse cx="437" cy="372" rx="32" ry="36" fill="white" stroke="#1a1a1a" stroke-width="2"/>
<ellipse cx="437" cy="348" rx="22" ry="26" fill="white" stroke="#1a1a1a" stroke-width="2"/>
<!-- Tree left -->
<rect x="50" y="400" width="12" height="120" fill="white" stroke="#1a1a1a" stroke-width="2"/>
<ellipse cx="56" cy="384" rx="26" ry="30" fill="white" stroke="#1a1a1a" stroke-width="2"/>
<g transform="translate(65.0,115.0) scale(5.14)">

  <g id="line">
    <path fill="none" stroke="#1a1a1a" stroke-linecap="round" stroke-linejoin="round" stroke-miterlimit="10" stroke-width="0.389" d="M29.8763,66.2708l1.9375-2.3125l2.75-10.1875l-0.625-11.5c-3.5-4-1.4344-8.6627-1.4344-8.6627 c-9.875-5.25-12.0656-16.3998-12.0656-16.3998l-6.4404,0.9828c-0.8827,0-1.3296-1.0629-0.712-1.6936l2.7773-2.2892l1.1875-1.6875 l2.625-0.625l-0.0625-2.875"/>
    <path fill="none" stroke="#1a1a1a" stroke-linecap="round" stroke-linejoin="round" stroke-miterlimit="10" stroke-width="0.389" d="M37.0638,40.2708c0,0-0.125,3,2.375,3.9375l3.3125,9.4375l1.75,10.1875l-1.3125,2.4375"/>
    <path fill="none" stroke="#1a1a1a" stroke-linecap="round" stroke-linejoin="round" stroke-miterlimit="10" stroke-width="0.389" d="M43.2557,43.3333h3.2456c0,0,3.0625-0.5625,3.375-3.9375"/>
    <path fill="none" stroke="#1a1a1a" stroke-linecap="round" stroke-linejoin="round" stroke-miterlimit="10" stroke-width="0.389" d="M49.1262,41.5646c0,0,0.9376,4.7688,6.3751,8.2063l0.8125,13.7895l-0.5,2.7105"/>
    <path fill="none" stroke="#1a1a1a" stroke-linecap="round" stroke-linejoin="round" stroke-miterlimit="10" stroke-width="0.389" d="M58.1888,47.4583c-2.5713-1.8248-3.1337-5.2183-3.221-7.2951c-0.0597-1.419-0.2781-2.8221-0.6805-4.1841l-0.0985-0.3333 c-1.8959-5.3999-8.6641-4.2096-12-5.5625c-2.549-1.0338-4.8135-3.9259-5.126-3.9259c-8.0867,0-14.1746-12.301-14.1746-12.301"/>
  </g>

</g>
</svg>