<svg viewBox="0 0 500 650" xmlns="http://www.w3.org/2000/svg">
<rect width="500" height="650" fill="white"/>
<rect width="500" height="72" fill="#f43f5e"/>
<text x="18" y="29" font-family="Nunito,sans-serif" font-size="10" fill="white" font-weight="800" opacity=".85">🦸 SUPERHEROES · CONNECT THE DOTS</text>
<text x="18" y="57" font-family="'Fredoka One',Nunito,sans-serif" font-size="21" fill="white" font-weight="900">Connect the Hero</text>
<text x="224" y="52" font-size="15" fill="#f43f5e" font-family="sans-serif">★</text><text x="244" y="52" font-size="15" fill="#d1d5db" font-family="sans-serif">★</text><text x="264" y="52" font-size="15" fill="#d1d5db" font-family="sans-serif">★</text>
<text x="284" y="52" font-family="Nunito,sans-serif" font-size="9" fill="white" opacity=".7">EASY · Ages 4-7</text>
<text x="488" y="52" font-family="Nunito,sans-serif" font-size="8" fill="white" opacity=".6" text-anchor="end">chartkids.com</text>
<!-- Ghost outline (faint answer hint) -->
<path d="M250.0,237.6 L264.5,243.0 L273.4,257.1 L273.4,274.5 L264.5,288.6 L250.0,294.0 L235.5,288.6 L226.6,274.5 L226.6,257.1 L235.5,243.0 L228.0,292.2 L219.2,309.8 L201.6,336.2 L192.8,362.6 L197.2,371.4 L206.0,362.6 L223.6,327.4 L228.0,362.6 L228.0,397.8 L223.6,441.8 L236.8,446.2 L245.6,446.2 L250.0,406.6 L254.4,446.2 L263.2,446.2 L276.4,441.8 L272.0,397.8 L272.0,362.6 L276.4,327.4 L294.0,362.6 L302.8,371.4 L307.2,362.6 L298.4,336.2 L280.8,309.8 L272.0,292.2Z" fill="none" stroke="#e2e8f0" stroke-width="1.5" stroke-dasharray="4,3"/>
<!-- Numbered dots -->
<circle cx="250.0" cy="237.6" r="6" fill="white" stroke="#f43f5e" stroke-width="1.8"/>
<text x="259.0" y="231.8" font-family="Nunito,sans-serif" font-size="9" font-weight="800" fill="#1a1a1a" text-anchor="start">1</text>
<circle cx="273.4" cy="274.6" r="6" fill="white" stroke="#f43f5e" stroke-width="1.8"/>
<text x="282.4" y="268.7" font-family="Nunito,sans-serif" font-size="9" font-weight="800" fill="#1a1a1a" text-anchor="start">2</text>
<circle cx="234.4" cy="286.8" r="6" fill="white" stroke="#f43f5e" stroke-width="1.8"/>
<text x="225.4" y="280.9" font-family="Nunito,sans-serif" font-size="9" font-weight="800" fill="#1a1a1a" text-anchor="end">3</text>
<circle cx="235.4" cy="244.0" r="6" fill="white" stroke="#f43f5e" stroke-width="1.8"/>
<text x="226.4" y="238.1" font-family="Nunito,sans-serif" font-size="9" font-weight="800" fill="#1a1a1a" text-anchor="end">4</text>
<circle cx="227.6" cy="292.9" r="6" fill="white" stroke="#f43f5e" stroke-width="1.8"/>
<text x="218.6" y="287.1" font-family="Nunito,sans-serif" font-size="9" font-weight="800" fill="#1a1a1a" text-anchor="end">5</text>
<circle cx="202.1" cy="335.4" r="6" fill="white" stroke="#f43f5e" stroke-width="1.8"/>
<text x="193.1" y="329.5" font-family="Nunito,sans-serif" font-size="9" font-weight="800" fill="#1a1a1a" text-anchor="end">6</text>
<circle cx="205.0" cy="363.6" r="6" fill="white" stroke="#f43f5e" stroke-width="1.8"/>
<text x="196.0" y="375.8" font-family="Nunito,sans-serif" font-size="9" font-weight="800" fill="#1a1a1a" text-anchor="end">7</text>
<circle cx="224.7" cy="336.1" r="6" fill="white" stroke="#f43f5e" stroke-width="1.8"/>
<text x="215.7" y="330.3" font-family="Nunito,sans-serif" font-size="9" font-weight="800" fill="#1a1a1a" text-anchor="end">8</text>
<circle cx="228.0" cy="385.6" r="6" fill="white" stroke="#f43f5e" stroke-width="1.8"/>
<text x="219.0" y="397.7" font-family="Nunito,sans-serif" font-size="9" font-weight="800" fill="#1a1a1a" text-anchor="end">9</text>
<circle cx="224.3" cy="435.0" r="6" fill="white" stroke="#f43f5e" stroke-width="1.8"/>
<text x="215.3" y="447.1" font-family="Nunito,sans-serif" font-size="9" font-weight="800" fill="#1a1a1a" text-anchor="end">10</text>
<circle cx="247.8" cy="426.3" r="6" fill="white" stroke="#f43f5e" stroke-width="1.8"/>
<text x="238.8" y="438.4" font-family="Nunito,sans-serif" font-size="9" font-weight="800" fill="#1a1a1a" text-anchor="end">11</text>
<circle cx="253.3" cy="436.2" r="6" fill="white" stroke="#f43f5e" stroke-width="1.8"/>
<text x="262.3" y="448.4" font-family="Nunito,sans-serif" font-size="9" font-weight="800" fill="#1a1a1a" text-anchor="start">12</text>
<circle cx="274.7" cy="425.0" r="6" fill="white" stroke="#f43f5e" stroke-width="1.8"/>
<text x="283.7" y="437.1" font-family="Nunito,sans-serif" font-size="9" font-weight="800" fill="#1a1a1a" text-anchor="start">13</text>
<circle cx="272.0" cy="375.5" r="6" fill="white" stroke="#f43f5e" stroke-width="1.8"/>
<text x="281.0" y="387.7" font-family="Nunito,sans-serif" font-size="9" font-weight="800" fill="#1a1a1a" text-anchor="start">14</text>
<circle cx="276.9" cy="328.5" r="6" fill="white" stroke="#f43f5e" stroke-width="1.8"/>
<text x="285.9" y="322.6" font-family="Nunito,sans-serif" font-size="9" font-weight="800" fill="#1a1a1a" text-anchor="start">15</text>
<circle cx="302.1" cy="370.7" r="6" fill="white" stroke="#f43f5e" stroke-width="1.8"/>
<text x="311.1" y="382.9" font-family="Nunito,sans-serif" font-size="9" font-weight="800" fill="#1a1a1a" text-anchor="start">16</text>
<circle cx="292.3" cy="327.0" r="6" fill="white" stroke="#f43f5e" stroke-width="1.8"/>
<text x="301.3" y="321.2" font-family="Nunito,sans-serif" font-size="9" font-weight="800" fill="#1a1a1a" text-anchor="start">17</text>
<circle cx="268.6" cy="283.7" r="6" fill="white" stroke="#f43f5e" stroke-width="1.8"/>
<text x="277.6" y="277.8" font-family="Nunito,sans-serif" font-size="9" font-weight="800" fill="#1a1a1a" text-anchor="start">18</text>
<!-- Footer instruction -->
<text x="250" y="618" font-family="Nunito,sans-serif" font-size="11" fill="#475569" text-anchor="middle" font-weight="700">Connect the dots in order from 1 to 18!</text>
<text x="250" y="643" font-family="Nunito,sans-serif" font-size="8" fill="#94a3b8" text-anchor="middle">Free printable · chartkids.com/dots/connect-the-hero-dots/</text>
</svg>